<svg xmlns="http://www.w3.org/2000/svg" viewBox="0 0 32 32" fill="none">
  <defs>
    <linearGradient id="nodeGradient" x1="0%" y1="0%" x2="100%" y2="100%">
      <stop offset="0%" style="stop-color:#10b981"/>
      <stop offset="100%" style="stop-color:#3b82f6"/>
    </linearGradient>
  </defs>

  <!-- 背景 -->
  <rect x="2" y="2" width="28" height="28" rx="6" fill="#0f172a"/>

  <!-- 六边形轮廓线 - 缩小尺寸，留出边距 -->
  <polygon
    points="16,6 24,10.5 24,21.5 16,26 8,21.5 8,10.5"
    fill="none"
    stroke="#10b981"
    stroke-width="1.2"
    stroke-opacity="0.35"
    stroke-linejoin="round"
  />

  <!-- 从外环到中心的连接线 -->
  <g stroke="#10b981" stroke-width="0.8" stroke-opacity="0.35">
    <line x1="16" y1="6" x2="16" y2="16"/>
    <line x1="24" y1="10.5" x2="16" y2="16"/>
    <line x1="24" y1="21.5" x2="16" y2="16"/>
    <line x1="16" y1="26" x2="16" y2="16"/>
    <line x1="8" y1="21.5" x2="16" y2="16"/>
    <line x1="8" y1="10.5" x2="16" y2="16"/>
  </g>

  <!-- 外环节点 (6个) - 缩小尺寸 -->
  <circle cx="16" cy="6" r="1.8" fill="url(#nodeGradient)"/>
  <circle cx="24" cy="10.5" r="1.8" fill="url(#nodeGradient)"/>
  <circle cx="24" cy="21.5" r="1.8" fill="url(#nodeGradient)"/>
  <circle cx="16" cy="26" r="1.8" fill="url(#nodeGradient)"/>
  <circle cx="8" cy="21.5" r="1.8" fill="url(#nodeGradient)"/>
  <circle cx="8" cy="10.5" r="1.8" fill="url(#nodeGradient)"/>

  <!-- 中心节点 -->
  <circle cx="16" cy="16" r="3" fill="url(#nodeGradient)"/>

  <!-- 节点高光 -->
  <circle cx="16" cy="6" r="0.7" fill="white" opacity="0.3"/>
  <circle cx="24" cy="10.5" r="0.7" fill="white" opacity="0.3"/>
  <circle cx="24" cy="21.5" r="0.7" fill="white" opacity="0.3"/>
  <circle cx="16" cy="26" r="0.7" fill="white" opacity="0.3"/>
  <circle cx="8" cy="21.5" r="0.7" fill="white" opacity="0.3"/>
  <circle cx="8" cy="10.5" r="0.7" fill="white" opacity="0.3"/>
  <circle cx="16" cy="16" r="1.2" fill="white" opacity="0.4"/>
</svg>