<svg xmlns="http://www.w3.org/2000/svg" viewBox="0 0 32 32" fill="none">
  <defs>
    <linearGradient id="bgGrad" x1="0%" y1="0%" x2="100%" y2="100%">
      <stop offset="0%" style="stop-color:#10b981"/>
      <stop offset="100%" style="stop-color:#059669"/>
    </linearGradient>
    <linearGradient id="flameGrad" x1="0%" y1="0%" x2="0%" y2="100%">
      <stop offset="0%" style="stop-color:#fbbf24"/>
      <stop offset="50%" style="stop-color:#f59e0b"/>
      <stop offset="100%" style="stop-color:#ef4444"/>
    </linearGradient>
  </defs>
  <!-- 圆角方形背景 -->
  <rect x="2" y="2" width="28" height="28" rx="6" fill="url(#bgGrad)"/>
  <!-- 火箭主体 -->
  <path d="M16 5C16 5 11 9 11 15C11 17 11.5 19 12 20L13 22H19L20 20C20.5 19 21 17 21 15C21 9 16 5 16 5Z" fill="white"/>
  <!-- 火箭窗户 -->
  <circle cx="16" cy="12" r="2" fill="#10b981"/>
  <!-- 火箭左翼 -->
  <path d="M11 18L9 22L11 23L12.5 20.5Z" fill="#e5e7eb"/>
  <!-- 火箭右翼 -->
  <path d="M21 18L23 22L21 23L19.5 20.5Z" fill="#e5e7eb"/>
  <!-- 火焰 -->
  <path d="M13.5 22L14.5 27L16 25L17.5 27L18.5 22Z" fill="url(#flameGrad)"/>
</svg>